<svg viewBox="0 0 900 220" xmlns="http://www.w3.org/2000/svg" font-family="Arial, sans-serif" font-size="13">

  <rect width="900" height="220" fill="#1e1e2e" rx="12"/>

  <!-- BLE Mouse block -->
  <rect x="20" y="60" width="140" height="90" rx="8" fill="#2a2a4a" stroke="#4a9eff" stroke-width="2"/>
  <text x="90" y="95" fill="#4a9eff" font-size="13" font-weight="bold" text-anchor="middle">BLE Mouse</text>
  <text x="90" y="113" fill="#aaa" font-size="11" text-anchor="middle">HID over BLE</text>
  <text x="90" y="130" fill="#aaa" font-size="11" text-anchor="middle">(any device)</text>

  <!-- Arrow 1 -->
  <defs>
    <marker id="a1" markerWidth="8" markerHeight="8" refX="6" refY="3" orient="auto"><path d="M0,0 L0,6 L8,3 z" fill="#4a9eff"/></marker>
    <marker id="a2" markerWidth="8" markerHeight="8" refX="6" refY="3" orient="auto"><path d="M0,0 L0,6 L8,3 z" fill="#78d878"/></marker>
    <marker id="a3" markerWidth="8" markerHeight="8" refX="6" refY="3" orient="auto"><path d="M0,0 L0,6 L8,3 z" fill="#ffd700"/></marker>
    <marker id="a4" markerWidth="8" markerHeight="8" refX="6" refY="3" orient="auto"><path d="M0,0 L0,6 L8,3 z" fill="#ff9944"/></marker>
    <marker id="a5" markerWidth="8" markerHeight="8" refX="6" refY="3" orient="auto"><path d="M0,0 L0,6 L8,3 z" fill="#cc88ff"/></marker>
  </defs>
  <line x1="160" y1="105" x2="215" y2="105" stroke="#4a9eff" stroke-width="2" marker-end="url(#a1)"/>
  <text x="188" y="98" fill="#4a9eff" font-size="10" text-anchor="middle">BLE</text>
  <text x="188" y="118" fill="#4a9eff" font-size="10" text-anchor="middle">HID notify</text>

  <!-- ESP32 block -->
  <rect x="215" y="40" width="175" height="140" rx="8" fill="#1a3a1a" stroke="#78d878" stroke-width="2"/>
  <text x="302" y="66" fill="#78d878" font-size="13" font-weight="bold" text-anchor="middle">ESP32-WROOM-32</text>
  <text x="302" y="85" fill="#aaa" font-size="10" text-anchor="middle">NimBLE-Arduino 2.x</text>
  <text x="302" y="102" fill="#aaa" font-size="10" text-anchor="middle">BLE HID → RS-232 packets</text>
  <text x="302" y="118" fill="#aaa" font-size="10" text-anchor="middle">Bit-bang TX  1200 baud 7N2</text>
  <text x="302" y="134" fill="#aaa" font-size="10" text-anchor="middle">RTS / DTR mouse ident</text>
  <text x="302" y="150" fill="#aaa" font-size="10" text-anchor="middle">GPIO16 TX · GPIO23 RTS</text>
  <text x="302" y="165" fill="#aaa" font-size="10" text-anchor="middle">GPIO5 DTR</text>

  <!-- Arrow 2 -->
  <line x1="390" y1="110" x2="435" y2="110" stroke="#78d878" stroke-width="2" marker-end="url(#a2)"/>
  <text x="412" y="103" fill="#78d878" font-size="10" text-anchor="middle">3.3V</text>
  <text x="412" y="123" fill="#78d878" font-size="10" text-anchor="middle">TTL</text>

  <!-- Level Shifter block -->
  <rect x="435" y="60" width="130" height="90" rx="8" fill="#2a2a2a" stroke="#ffd700" stroke-width="2"/>
  <text x="500" y="88" fill="#ffd700" font-size="12" font-weight="bold" text-anchor="middle">Level Shifter</text>
  <text x="500" y="106" fill="#aaa" font-size="10" text-anchor="middle">BSS138</text>
  <text x="500" y="122" fill="#aaa" font-size="10" text-anchor="middle">3.3V ↔ 5V</text>
  <text x="500" y="138" fill="#aaa" font-size="10" text-anchor="middle">bidirectional</text>

  <!-- Arrow 3 -->
  <line x1="565" y1="105" x2="620" y2="105" stroke="#ffd700" stroke-width="2" marker-end="url(#a3)"/>
  <text x="592" y="98" fill="#ffd700" font-size="10" text-anchor="middle">5V</text>
  <text x="592" y="118" fill="#ffd700" font-size="10" text-anchor="middle">TTL</text>

  <!-- MAX232 block -->
  <rect x="620" y="60" width="130" height="90" rx="8" fill="#2a1a1a" stroke="#ff9944" stroke-width="2"/>
  <text x="685" y="88" fill="#ff9944" font-size="12" font-weight="bold" text-anchor="middle">MAX232CPE</text>
  <text x="685" y="106" fill="#aaa" font-size="10" text-anchor="middle">TTL ↔ RS-232</text>
  <text x="685" y="122" fill="#aaa" font-size="10" text-anchor="middle">5V → ±12V</text>
  <text x="685" y="138" fill="#aaa" font-size="10" text-anchor="middle">charge pump</text>

  <!-- Arrow 4 -->
  <line x1="750" y1="105" x2="805" y2="105" stroke="#ff9944" stroke-width="2" marker-end="url(#a4)"/>
  <text x="777" y="98" fill="#ff9944" font-size="10" text-anchor="middle">RS-232</text>
  <text x="777" y="118" fill="#ff9944" font-size="10" text-anchor="middle">±12V</text>

  <!-- PC block -->
  <rect x="805" y="65" width="80" height="80" rx="8" fill="#2a2a4a" stroke="#cc88ff" stroke-width="2"/>
  <text x="845" y="95" fill="#cc88ff" font-size="13" font-weight="bold" text-anchor="middle">PC</text>
  <text x="845" y="112" fill="#aaa" font-size="10" text-anchor="middle">COM port</text>
  <text x="845" y="127" fill="#aaa" font-size="10" text-anchor="middle">DB9 female</text>

  <!-- Caption -->
  <text x="450" y="200" fill="#555" font-size="11" text-anchor="middle">ESP32 emulates a Microsoft Serial Mouse — the PC has no knowledge of BLE</text>
</svg>
