<?xml version="1.0" encoding="utf-8"?>
<svg viewBox="0 0 1060 500" xmlns="http://www.w3.org/2000/svg" font-family="monospace" font-size="12">
  <rect width="1060" height="500" fill="#1e1e2e" rx="12"/>
  <text x="530" y="35" fill="#eee" font-size="16" font-weight="bold" text-anchor="middle" style="white-space: pre;">BLE → RS-232 Serial Mouse Bridge — Wiring Diagram</text>
  <rect x="20" y="60" width="175" height="380" rx="8" fill="#1a3a1a" stroke="#78d878" stroke-width="2"/>
  <text x="108" y="84" fill="#78d878" font-size="13" font-weight="bold" text-anchor="middle" style="white-space: pre;">ESP32-WROOM-32</text>
  <rect x="155" y="100" width="40" height="22" rx="3" fill="#1a3a1a" stroke="#4a9eff" stroke-width="1"/>
  <text x="175" y="115" fill="#4a9eff" font-size="11" text-anchor="middle" style="white-space: pre;">3V3</text>
  <text x="90" y="115" fill="#4a9eff" font-size="11" text-anchor="middle" style="white-space: pre;">3.3V ref</text>
  <rect x="155" y="132" width="40" height="22" rx="3" fill="#1a3a1a" stroke="#ff9944" stroke-width="1"/>
  <text x="175" y="147" fill="#ff9944" font-size="11" text-anchor="middle" style="white-space: pre;">VIN</text>
  <text x="90" y="147" fill="#ff9944" font-size="11" text-anchor="middle" style="white-space: pre;">5V in</text>
  <rect x="155" y="164" width="40" height="22" rx="3" fill="#1a3a1a" stroke="#ff6b6b" stroke-width="1"/>
  <text x="175" y="179" fill="#ff6b6b" font-size="11" text-anchor="middle" style="white-space: pre;">GND</text>
  <rect x="155" y="220" width="40" height="22" rx="3" fill="#1a3a1a" stroke="#a0e878" stroke-width="1"/>
  <text x="175" y="235" fill="#a0e878" font-size="11" text-anchor="middle" style="white-space: pre;">IO16</text>
  <text x="90" y="235" fill="#a0e878" font-size="11" text-anchor="middle" style="white-space: pre;">TX out</text>
  <rect x="155" y="270" width="40" height="22" rx="3" fill="#1a3a1a" stroke="#ffd700" stroke-width="1"/>
  <text x="175" y="285" fill="#ffd700" font-size="11" text-anchor="middle" style="white-space: pre;">IO23</text>
  <text x="90" y="285" fill="#ffd700" font-size="11" text-anchor="middle" style="white-space: pre;">RTS in</text>
  <rect x="155" y="320" width="40" height="22" rx="3" fill="#1a3a1a" stroke="#ff88cc" stroke-width="1"/>
  <text x="175" y="335" fill="#ff88cc" font-size="11" text-anchor="middle" style="white-space: pre;">IO5</text>
  <text x="90" y="335" fill="#ff88cc" font-size="11" text-anchor="middle" style="white-space: pre;">DTR in</text>
  <rect x="280" y="60" width="210" height="380" rx="8" fill="#2a2a2a" stroke="#ffd700" stroke-width="2"/>
  <text x="385" y="84" fill="#ffd700" font-size="13" font-weight="bold" text-anchor="middle" style="white-space: pre;">BSS138 Level Shifter</text>
  <text x="385" y="100" fill="#aaa" font-size="10" text-anchor="middle" style="white-space: pre;">3.3V ↔ 5V bidirectional</text>
  <text x="305" y="128" fill="#78d878" font-size="11" style="white-space: pre;">LV side</text>
  <rect x="290" y="135" width="40" height="22" rx="3" fill="#222" stroke="#4a9eff" stroke-width="1"/>
  <text x="310" y="150" fill="#4a9eff" font-size="11" text-anchor="middle" style="white-space: pre;">LV</text>
  <rect x="290" y="164" width="40" height="22" rx="3" fill="#222" stroke="#ff6b6b" stroke-width="1"/>
  <text x="310" y="179" fill="#ff6b6b" font-size="11" text-anchor="middle" style="white-space: pre;">GND</text>
  <line x1="330.066" y1="175.095" x2="430.37" y2="175.095" stroke="#ff6b6b" stroke-width="1" stroke-dasharray="4,3" style=""/>
  <text x="379.564" y="194.638" fill="#ff6b6b" font-size="9" text-anchor="middle" style="white-space: pre; font-size: 9px;">internally connected</text>
  <rect x="290" y="212" width="40" height="22" rx="3" fill="#222" stroke="#a0e878" stroke-width="1"/>
  <text x="310" y="227" fill="#a0e878" font-size="11" text-anchor="middle" style="white-space: pre;">A1</text>
  <rect x="290" y="262" width="40" height="22" rx="3" fill="#222" stroke="#ffd700" stroke-width="1"/>
  <text x="310" y="277" fill="#ffd700" font-size="11" text-anchor="middle" style="white-space: pre;">A2</text>
  <rect x="290" y="312" width="40" height="22" rx="3" fill="#222" stroke="#ff88cc" stroke-width="1"/>
  <text x="310" y="327" fill="#ff88cc" font-size="11" text-anchor="middle" style="white-space: pre;">A3</text>
  <text x="420" y="128" fill="#ff9944" font-size="11" style="white-space: pre;">HV side</text>
  <rect x="430" y="135" width="40" height="22" rx="3" fill="#222" stroke="#ff9944" stroke-width="1"/>
  <text x="450" y="150" fill="#ff9944" font-size="11" text-anchor="middle" style="white-space: pre;">HV</text>
  <rect x="430" y="164" width="40" height="22" rx="3" fill="#222" stroke="#ff6b6b" stroke-width="1"/>
  <text x="450" y="179" fill="#ff6b6b" font-size="11" text-anchor="middle" style="white-space: pre;">GND</text>
  <rect x="430" y="212" width="40" height="22" rx="3" fill="#222" stroke="#a0e878" stroke-width="1"/>
  <text x="450" y="227" fill="#a0e878" font-size="11" text-anchor="middle" style="white-space: pre;">B1</text>
  <rect x="430" y="262" width="40" height="22" rx="3" fill="#222" stroke="#ffd700" stroke-width="1"/>
  <text x="450" y="277" fill="#ffd700" font-size="11" text-anchor="middle" style="white-space: pre;">B2</text>
  <rect x="430" y="312" width="40" height="22" rx="3" fill="#222" stroke="#ff88cc" stroke-width="1"/>
  <text x="450" y="327" fill="#ff88cc" font-size="11" text-anchor="middle" style="white-space: pre;">B3</text>
  <rect x="570" y="60" width="210" height="380" rx="8" fill="#2a1a1a" stroke="#ff9944" stroke-width="2"/>
  <text x="675" y="84" fill="#ff9944" font-size="13" font-weight="bold" text-anchor="middle" style="white-space: pre;">MAX232CPE</text>
  <text x="675" y="100" fill="#aaa" font-size="10" text-anchor="middle" style="white-space: pre;">TTL ↔ RS-232  (4× 1µF caps)</text>
  <text x="595" y="128" fill="#78d878" font-size="11" style="white-space: pre;">TTL side (5V)</text>
  <rect x="580" y="135" width="50" height="22" rx="3" fill="#2a1a1a" stroke="#ff9944" stroke-width="1"/>
  <text x="605" y="150" fill="#ff9944" font-size="11" text-anchor="middle" style="white-space: pre;">VCC</text>
  <rect x="580" y="164" width="50" height="22" rx="3" fill="#2a1a1a" stroke="#ff6b6b" stroke-width="1"/>
  <text x="605" y="179" fill="#ff6b6b" font-size="11" text-anchor="middle" style="white-space: pre;">GND</text>
  <rect x="580" y="212" width="50" height="22" rx="3" fill="#2a1a1a" stroke="#a0e878" stroke-width="1"/>
  <text x="605" y="227" fill="#a0e878" font-size="11" text-anchor="middle" style="white-space: pre;">T1IN</text>
  <rect x="580" y="262" width="50" height="22" rx="3" fill="#2a1a1a" stroke="#ffd700" stroke-width="1"/>
  <text x="605" y="277" fill="#ffd700" font-size="11" text-anchor="middle" style="white-space: pre;">R1OUT</text>
  <rect x="580" y="312" width="50" height="22" rx="3" fill="#2a1a1a" stroke="#ff88cc" stroke-width="1"/>
  <text x="605" y="327" fill="#ff88cc" font-size="11" text-anchor="middle" style="white-space: pre;">R2OUT</text>
  <text x="700" y="128" fill="#cc88ff" font-size="11" style="white-space: pre;">RS-232 side</text>
  <rect x="720" y="135" width="50" height="22" rx="3" fill="#2a1a1a" stroke="#ff9944" stroke-width="1"/>
  <text x="745" y="150" fill="#ff9944" font-size="11" text-anchor="middle" style="white-space: pre;">V+/V-</text>
  <rect x="720" y="212" width="50" height="22" rx="3" fill="#2a1a1a" stroke="#a0e878" stroke-width="1"/>
  <text x="745" y="227" fill="#a0e878" font-size="11" text-anchor="middle" style="white-space: pre;">T1OUT</text>
  <rect x="720" y="262" width="50" height="22" rx="3" fill="#2a1a1a" stroke="#ffd700" stroke-width="1"/>
  <text x="745" y="277" fill="#ffd700" font-size="11" text-anchor="middle" style="white-space: pre;">R1IN</text>
  <rect x="720" y="312" width="50" height="22" rx="3" fill="#2a1a1a" stroke="#ff88cc" stroke-width="1"/>
  <text x="745" y="327" fill="#ff88cc" font-size="11" text-anchor="middle" style="white-space: pre;">R2IN</text>
  <text x="675" y="390" fill="#888" font-size="10" text-anchor="middle" style="white-space: pre;">C1–C4: 1µF electrolytic</text>
  <text x="675" y="405" fill="#888" font-size="10" text-anchor="middle" style="white-space: pre;">between charge pump pins</text>
  <rect x="855" y="60" width="185" height="380" rx="8" fill="#2a2a4a" stroke="#cc88ff" stroke-width="2"/>
  <text x="948" y="84" fill="#cc88ff" font-size="13" font-weight="bold" text-anchor="middle" style="white-space: pre;">DB9 Female</text>
  <text x="948" y="100" fill="#aaa" font-size="10" text-anchor="middle" style="white-space: pre;">COM port on PC</text>
  <rect x="865" y="135" width="50" height="22" rx="3" fill="#2a2a4a" stroke="#888" stroke-width="1"/>
  <text x="890" y="150" fill="#888" font-size="11" text-anchor="middle" style="white-space: pre;">pin 1</text>
  <text x="940" y="150" fill="#888" font-size="10" style="white-space: pre;">DCD — NC</text>
  <rect x="865" y="212" width="50" height="22" rx="3" fill="#2a2a4a" stroke="#a0e878" stroke-width="1"/>
  <text x="890" y="227" fill="#a0e878" font-size="11" text-anchor="middle" style="white-space: pre;">pin 2</text>
  <text x="940" y="227" fill="#a0e878" font-size="10" style="white-space: pre;">RD (data in)</text>
  <rect x="865" y="242" width="50" height="22" rx="3" fill="#2a2a4a" stroke="#888" stroke-width="1"/>
  <text x="890" y="257" fill="#888" font-size="11" text-anchor="middle" style="white-space: pre;">pin 3</text>
  <text x="940" y="257" fill="#888" font-size="10" style="white-space: pre;">TD — NC</text>
  <rect x="865" y="272" width="50" height="22" rx="3" fill="#2a2a4a" stroke="#ff88cc" stroke-width="1"/>
  <text x="890" y="287" fill="#ff88cc" font-size="11" text-anchor="middle" style="white-space: pre;">pin 4</text>
  <text x="940" y="287" fill="#ff88cc" font-size="10" style="white-space: pre;">DTR (ident)</text>
  <rect x="865" y="302" width="50" height="22" rx="3" fill="#2a2a4a" stroke="#ff6b6b" stroke-width="1"/>
  <text x="890" y="317" fill="#ff6b6b" font-size="11" text-anchor="middle" style="white-space: pre;">pin 5</text>
  <text x="940" y="317" fill="#ff6b6b" font-size="10" style="white-space: pre;">GND</text>
  <rect x="865" y="332" width="50" height="22" rx="3" fill="#2a2a4a" stroke="#888" stroke-width="1"/>
  <text x="890" y="347" fill="#888" font-size="11" text-anchor="middle" style="white-space: pre;">pin 6</text>
  <text x="940" y="347" fill="#888" font-size="10" style="white-space: pre;">DSR — NC</text>
  <rect x="865" y="362" width="50" height="22" rx="3" fill="#2a2a4a" stroke="#ffd700" stroke-width="1"/>
  <text x="890" y="377" fill="#ffd700" font-size="11" text-anchor="middle" style="white-space: pre;">pin 7</text>
  <text x="940" y="377" fill="#ffd700" font-size="10" style="white-space: pre;">RTS (ident)</text>
  <line x1="195" y1="111" x2="290" y2="146" stroke="#4a9eff" stroke-width="2"/>
  <line x1="195" y1="143" x2="210.807" y2="143" stroke="#ff9944" stroke-width="2" style=""/>
  <line x1="209.934" y1="143" x2="209.934" y2="450" stroke="#ff9944" stroke-width="2"/>
  <line x1="209.498" y1="450" x2="508.156" y2="450" stroke="#ff9944" stroke-width="2" style=""/>
  <line x1="507.72" y1="450.436" x2="507.72" y2="146.436" stroke="#ff9944" stroke-width="2" stroke-dasharray="6,3"/>
  <line x1="579.695" y1="146" x2="470" y2="146" stroke="#ff9944" stroke-width="2" style=""/>
  <line x1="195" y1="175" x2="290.333" y2="175" stroke="#ff6b6b" stroke-width="2" style=""/>
  <line x1="255" y1="175" x2="255" y2="460" stroke="#ff6b6b" stroke-width="2" stroke-dasharray="6,3"/>
  <line x1="255" y1="460" x2="660" y2="460" stroke="#ff6b6b" stroke-width="2"/>
  <line x1="536.115" y1="459.564" x2="536.115" y2="174.564" stroke="#ff6b6b" stroke-width="2" stroke-dasharray="6,3"/>
  <line x1="579.736" y1="174.128" x2="535.342" y2="174.128" stroke="#ff6b6b" stroke-width="2" style=""/>
  <line x1="195" y1="231" x2="290" y2="223" stroke="#a0e878" stroke-width="2"/>
  <line x1="195" y1="281" x2="290" y2="273" stroke="#ffd700" stroke-width="2"/>
  <line x1="195" y1="331" x2="290" y2="323" stroke="#ff88cc" stroke-width="2"/>
  <line x1="470" y1="223" x2="580" y2="223" stroke="#a0e878" stroke-width="2"/>
  <line x1="470" y1="273" x2="580" y2="273" stroke="#ffd700" stroke-width="2"/>
  <line x1="470" y1="323" x2="580" y2="323" stroke="#ff88cc" stroke-width="2"/>
  <line x1="770" y1="223" x2="865" y2="223" stroke="#a0e878" stroke-width="2"/>
  <line x1="770" y1="273" x2="840" y2="273" stroke="#ffd700" stroke-width="2"/>
  <line x1="840" y1="273" x2="840" y2="372.967" stroke="#ffd700" stroke-width="2" style=""/>
  <line x1="840.436" y1="372.531" x2="865.436" y2="372.531" stroke="#ffd700" stroke-width="2"/>
  <line x1="770" y1="323" x2="797.754" y2="323" stroke="#ff88cc" stroke-width="2" style=""/>
  <line x1="797.317" y1="323.436" x2="797.317" y2="282.531" stroke="#ff88cc" stroke-width="2" style=""/>
  <line x1="796.881" y1="282.967" x2="865" y2="282.967" stroke="#ff88cc" stroke-width="2" style=""/>
  <line x1="660" y1="460" x2="818.09" y2="460" stroke="#ff6b6b" stroke-width="2" style=""/>
  <line x1="817.218" y1="459.564" x2="817.218" y2="312.095" stroke="#ff6b6b" stroke-width="2" style=""/>
  <line x1="864.329" y1="312.967" x2="817.017" y2="312.967" stroke="#ff6b6b" stroke-width="2" style=""/>
  <text x="530" y="480" fill="#555" font-size="11" text-anchor="middle" style="white-space: pre;">GPIO16=TX(out) · GPIO23=RTS(in) · GPIO5=DTR(in) · 1200 baud 7N2 bit-bang</text>
</svg>